<svg width="18" height="15" viewBox="0 0 18 15" fill="none" xmlns="http://www.w3.org/2000/svg">
<g id="Eyes">
<path id="Vector" opacity="0.3" d="M8.33626 9.79747C8.9095 9.79747 9.45925 9.56785 9.86459 9.1591C10.2699 8.75036 10.4976 8.19598 10.4976 7.61793C10.4976 7.5541 10.4948 7.49085 10.4893 7.42839L8.1483 9.78911C8.21025 9.79456 8.27277 9.79747 8.33626 9.79747ZM15.4904 0.876125L14.666 0.045562C14.6371 0.016388 14.5978 0 14.5569 0C14.516 0 14.4767 0.016388 14.4478 0.045562L12.3381 2.17354C11.1743 1.57377 9.86608 1.27389 8.41346 1.27389C4.70437 1.27389 1.93703 3.22186 0.111437 7.1178C0.038057 7.27449 0 7.44562 0 7.6189C0 7.79218 0.038057 7.96332 0.111437 8.12C0.840903 9.66943 1.71929 10.9113 2.74659 11.8457L0.705045 13.9036C0.676114 13.9328 0.659862 13.9724 0.659862 14.0136C0.659862 14.0549 0.676114 14.0945 0.705045 14.1237L1.52888 14.9544C1.55783 14.9836 1.59708 15 1.63801 15C1.67894 15 1.71819 14.9836 1.74714 14.9544L15.4904 1.09641C15.5048 1.08196 15.5162 1.06479 15.5239 1.04589C15.5317 1.02699 15.5357 1.00673 15.5357 0.98627C15.5357 0.965811 15.5317 0.945552 15.5239 0.926653C15.5162 0.907753 15.5048 0.890583 15.4904 0.876125ZM4.93981 7.61793C4.93975 7.02635 5.09165 6.44484 5.38071 5.93006C5.66976 5.41527 6.08611 4.98476 6.5892 4.68046C7.09229 4.37617 7.66496 4.20846 8.25143 4.19368C8.83789 4.17891 9.41815 4.31756 9.93569 4.59614L8.99741 5.5423C8.61902 5.42012 8.21456 5.40541 7.82842 5.49977C7.44227 5.59414 7.08937 5.79393 6.80842 6.07724C6.52747 6.36055 6.32934 6.71642 6.23576 7.10581C6.14218 7.4952 6.15677 7.90306 6.27793 8.28464L5.33966 9.23079C5.07636 8.73471 4.93899 8.1806 4.93981 7.61793Z" fill="black"/>
<path id="Vector_2" opacity="0.3" d="M17.0291 7.21225C16.3354 5.79695 15.5097 4.64287 14.5521 3.75003L11.7115 6.50205C11.951 7.10842 12.0041 7.76899 11.8644 8.40395C11.7247 9.03891 11.3981 9.62109 10.9243 10.0802C10.4504 10.5392 9.84944 10.8556 9.19401 10.9909C8.53858 11.1262 7.85672 11.0748 7.2308 10.8429L4.82144 13.177C5.93921 13.6781 7.18245 13.9286 8.55116 13.9286C12.3388 13.9286 15.1648 12.0176 17.0291 8.19546C17.104 8.04174 17.1429 7.87386 17.1429 7.70386C17.1429 7.53386 17.104 7.36597 17.0291 7.21225Z" fill="black"/>
</g>
</svg>
